<svg width="41" height="41" viewBox="0 0 41 41" fill="none" xmlns="http://www.w3.org/2000/svg">
<path d="M32.1494 33.9715H11.1938C9.5405 33.9715 8.2002 32.6603 8.2002 31.0429V10.5429C8.2002 8.92553 9.5405 7.61436 11.1938 7.61436H14.1875V4.68579H17.1811V7.61436H26.1621V4.68579H29.1557V7.61436H32.1494C33.8027 7.61436 35.143 8.92553 35.143 10.5429V31.0429C35.143 32.6603 33.8027 33.9715 32.1494 33.9715ZM11.1938 16.4001V31.0429H32.1494V16.4001H11.1938ZM11.1938 10.5429V13.4715H32.1494V10.5429H11.1938ZM29.1557 28.1144H26.1621V25.1858H29.1557V28.1144ZM23.1684 28.1144H20.1748V25.1858H23.1684V28.1144ZM17.1811 28.1144H14.1875V25.1858H17.1811V28.1144ZM29.1557 22.2572H26.1621V19.3286H29.1557V22.2572ZM23.1684 22.2572H20.1748V19.3286H23.1684V22.2572ZM17.1811 22.2572H14.1875V19.3286H17.1811V22.2572Z" fill="#878787"/>
</svg>
