<svg width="24" height="20" viewBox="0 0 24 20" fill="none" xmlns="http://www.w3.org/2000/svg">
<path fill-rule="evenodd" clip-rule="evenodd" d="M12.8002 13.3999C12.8002 13.3666 12.7982 13.3338 12.7942 13.3016C19.1112 12.5169 24.0002 7.12932 24.0002 0.599854C16.931 0.599854 11.2002 6.33062 11.2002 13.3999V15.7999C11.2002 16.2417 11.5584 16.5999 12.0002 16.5999C12.442 16.5999 12.8002 16.2417 12.8002 15.7999V13.3999ZM12.9336 11.6666C13.6789 6.86897 17.4693 3.07855 22.267 2.33319C21.5216 7.13082 17.7312 10.9212 12.9336 11.6666Z" fill="#15B85B"/>
<path fill-rule="evenodd" clip-rule="evenodd" d="M11.1998 16.5998C11.1998 16.5666 11.2018 16.5338 11.2058 16.5016C4.88877 15.7169 -0.000230789 10.3293 -0.000230789 3.7998C7.06903 3.7998 12.7998 9.53058 12.7998 16.5998V18.9998C12.7998 19.4417 12.4416 19.7998 11.9998 19.7998C11.558 19.7998 11.1998 19.4417 11.1998 18.9998V16.5998ZM11.0665 14.8665C10.3211 10.0689 6.53068 6.2785 1.73305 5.53314C2.47841 10.3308 6.26883 14.1212 11.0665 14.8665Z" fill="#15B85B"/>
</svg>
