<svg width="32" height="22" viewBox="0 0 32 22" fill="none" xmlns="http://www.w3.org/2000/svg">
<path d="M24.9257 0C24.0842 0 23.251 0.142255 22.4736 0.418644C21.6962 0.695033 20.9898 1.10014 20.3948 1.61084C19.1931 2.64225 18.5181 4.04113 18.5181 5.49976C18.5125 6.76972 19.0248 8.00134 19.9662 8.9811L18.6847 10.0811C18.5957 10.1584 18.5355 10.2566 18.5116 10.3633C18.4876 10.47 18.501 10.5804 18.5501 10.6805C18.6033 10.7795 18.6896 10.8626 18.798 10.9194C18.9064 10.9762 19.032 11.0041 19.1588 10.9995H24.9257C26.6251 10.9995 28.2549 10.4201 29.4566 9.38867C30.6582 8.35727 31.3333 6.95838 31.3333 5.49976C31.3333 4.04113 30.6582 2.64225 29.4566 1.61084C28.2549 0.579437 26.6251 0 24.9257 0ZM24.9257 9.89956H20.7031L21.299 9.38808C21.4183 9.28504 21.4853 9.14565 21.4853 9.00035C21.4853 8.85506 21.4183 8.71566 21.299 8.61262C20.4599 7.89327 19.9375 6.94649 19.8205 5.93357C19.7036 4.92066 19.9995 3.90428 20.6577 3.0576C21.316 2.21092 22.2959 1.58633 23.4305 1.29023C24.5651 0.994129 25.7842 1.04485 26.8802 1.43374C27.9761 1.82263 28.881 2.52564 29.4408 3.42299C30.0006 4.32034 30.1805 5.35651 29.95 6.35497C29.7195 7.35343 29.0928 8.25241 28.1766 8.89874C27.2605 9.54507 26.1116 9.89876 24.9257 9.89956Z" fill="#15B85B"/>
<path d="M14.5675 11.6509C15.4661 10.9438 16.1221 9.97425 16.4441 8.87702C16.7661 7.77979 16.738 6.60948 16.3639 5.52892C15.9898 4.44836 15.2882 3.51127 14.3567 2.84802C13.4252 2.18478 12.3101 1.82837 11.1666 1.82837C10.0231 1.82837 8.90806 2.18478 7.97656 2.84802C7.04506 3.51127 6.34344 4.44836 5.96932 5.52892C5.5952 6.60948 5.56718 7.77979 5.88915 8.87702C6.21113 9.97425 6.8671 10.9438 7.76579 11.6509C6.22586 12.2679 4.88222 13.2911 3.87811 14.6117C2.874 15.9322 2.24706 17.5004 2.06412 19.1492C2.05088 19.2696 2.06148 19.3914 2.09531 19.5077C2.12915 19.624 2.18555 19.7325 2.26131 19.827C2.41431 20.0178 2.63684 20.14 2.87996 20.1667C3.12307 20.1935 3.36685 20.1226 3.55767 19.9696C3.74849 19.8166 3.87071 19.594 3.89746 19.3509C4.09874 17.559 4.95317 15.9041 6.29749 14.7023C7.64181 13.5005 9.38178 12.8362 11.185 12.8362C12.9881 12.8362 14.7281 13.5005 16.0724 14.7023C17.4167 15.9041 18.2712 17.559 18.4725 19.3509C18.4974 19.5762 18.6049 19.7842 18.7741 19.9348C18.9434 20.0855 19.1625 20.1681 19.3891 20.1667H19.49C19.7302 20.1391 19.9499 20.0176 20.101 19.8287C20.2521 19.6398 20.3224 19.3989 20.2966 19.1584C20.1128 17.5049 19.4825 15.9326 18.4732 14.6101C17.464 13.2875 16.1138 12.2646 14.5675 11.6509ZM11.1666 11.0001C10.4414 11.0001 9.73251 10.785 9.12953 10.3821C8.52655 9.97923 8.05659 9.40658 7.77906 8.73658C7.50154 8.06659 7.42893 7.32934 7.57041 6.61808C7.71189 5.90681 8.06111 5.25348 8.5739 4.74068C9.08669 4.22789 9.74003 3.87867 10.4513 3.73719C11.1626 3.59572 11.8998 3.66833 12.5698 3.94585C13.2398 4.22337 13.8124 4.69334 14.2153 5.29632C14.6182 5.8993 14.8333 6.60821 14.8333 7.33341C14.8333 8.30587 14.447 9.2385 13.7593 9.92613C13.0717 10.6138 12.1391 11.0001 11.1666 11.0001Z" fill="#15B85B"/>
</svg>
