<svg width="42" height="42" viewBox="0 0 42 42" fill="none" xmlns="http://www.w3.org/2000/svg">
<path d="M22.65 36.5435H8.71126C6.78671 36.5435 5.22656 35.1505 5.22656 33.4322V11.6528C5.22656 9.9345 6.78671 8.5415 8.71126 8.5415H33.1041C35.0287 8.5415 36.5888 9.9345 36.5888 11.6528V24.0982C36.5881 24.1162 36.5845 24.134 36.5784 24.1511C36.5734 24.1653 36.5699 24.1799 36.5679 24.1946C36.5581 24.3318 36.5282 24.4673 36.4791 24.5976L36.4634 24.6396C36.4517 24.6747 36.4371 24.709 36.4198 24.7422C36.3355 24.9117 36.2174 25.0661 36.0714 25.198L23.8749 36.0877C23.55 36.378 23.1097 36.5418 22.65 36.5435ZM8.71126 11.6528V33.4322H20.9077V24.0982C20.9077 23.239 21.6878 22.5425 22.65 22.5425H33.1041V11.6528H8.71126ZM24.3924 25.6539V31.234L30.6405 25.6539H24.3924Z" fill="white"/>
<path d="M12.8149 22.5982C12.4699 22.5977 12.141 22.4678 11.9084 22.2403C11.6716 22.0146 11.5539 21.7093 11.585 21.4013L11.8863 18.443L25.8062 6.01885L30.1563 9.9018L16.2401 22.3248L12.9268 22.5939C12.8887 22.5971 12.8505 22.5982 12.8149 22.5982ZM31.0246 9.12543L26.6757 5.24248L29.2843 2.91337C29.515 2.70717 29.8281 2.59131 30.1545 2.59131C30.4809 2.59131 30.794 2.70717 31.0246 2.91337L33.6332 5.24248C33.8642 5.44845 33.994 5.72795 33.994 6.0194C33.994 6.31085 33.8642 6.59035 33.6332 6.79632L31.0259 9.12433L31.0246 9.12543Z" fill="white"/>
</svg>
